<svg width="28" height="28" viewBox="0 0 28 28" fill="none" xmlns="http://www.w3.org/2000/svg">
<path d="M8.37082 25.6375C7.78749 25.6375 7.29165 25.4334 6.88332 25.025C6.47499 24.6167 6.27082 24.1209 6.27082 23.5375C6.27082 22.9542 6.47499 22.4584 6.88332 22.05C7.29165 21.6417 7.78749 21.4375 8.37082 21.4375C8.95415 21.4375 9.44999 21.6417 9.85832 22.05C10.2667 22.4584 10.4708 22.9542 10.4708 23.5375C10.4708 24.1209 10.2667 24.6167 9.85832 25.025C9.44999 25.4334 8.95415 25.6375 8.37082 25.6375ZM20.0375 25.6375C19.4542 25.6375 18.9583 25.4334 18.55 25.025C18.1417 24.6167 17.9375 24.1209 17.9375 23.5375C17.9375 22.9542 18.1417 22.4584 18.55 22.05C18.9583 21.6417 19.4542 21.4375 20.0375 21.4375C20.6208 21.4375 21.1167 21.6417 21.525 22.05C21.9333 22.4584 22.1375 22.9542 22.1375 23.5375C22.1375 24.1209 21.9333 24.6167 21.525 25.025C21.1167 25.4334 20.6208 25.6375 20.0375 25.6375ZM6.85415 6.38754L10.0625 13.0375H18.4625L22.1083 6.38754H6.85415ZM5.97915 4.63754H23.1583C23.6055 4.63754 23.9458 4.84171 24.1792 5.25004C24.4125 5.65837 24.4125 6.06671 24.1792 6.47504L20.2417 13.5625C20.0278 13.932 19.7507 14.2285 19.4104 14.4521C19.0701 14.6757 18.6958 14.7875 18.2875 14.7875H9.44999L7.81665 17.8209H22.1375V19.5709H8.07915C7.26249 19.5709 6.67429 19.2987 6.31457 18.7542C5.95485 18.2098 5.95971 17.5973 6.32915 16.9167L8.19582 13.475L3.76249 4.08337H1.48749V2.33337H4.89999L5.97915 4.63754ZM10.0625 13.0375H18.4625H10.0625Z" fill="white"/>
</svg>
