<svg width="250" height="250" viewBox="0 0 250 250" fill="none" xmlns="http://www.w3.org/2000/svg">
<rect x="28" y="77" width="41.9668" height="57.9557" stroke="white" stroke-width="6"/>
<circle cx="62" cy="138.263" r="37" fill="white"/>
<path d="M123.231 145V117H135.791C139.018 117 141.498 117.653 143.231 118.96C144.965 120.24 145.831 122 145.831 124.24C145.831 125.76 145.485 127.04 144.791 128.08C144.125 129.12 143.218 129.92 142.071 130.48C140.925 131.04 139.685 131.32 138.351 131.32L139.071 130.12C140.671 130.12 142.085 130.4 143.311 130.96C144.538 131.52 145.511 132.347 146.231 133.44C146.951 134.507 147.311 135.84 147.311 137.44C147.311 139.84 146.405 141.707 144.591 143.04C142.805 144.347 140.138 145 136.591 145H123.231ZM127.231 141.76H136.431C138.645 141.76 140.338 141.387 141.511 140.64C142.685 139.893 143.271 138.72 143.271 137.12C143.271 135.493 142.685 134.307 141.511 133.56C140.338 132.813 138.645 132.44 136.431 132.44H126.871V129.2H135.431C137.458 129.2 139.031 128.827 140.151 128.08C141.271 127.333 141.831 126.213 141.831 124.72C141.831 123.227 141.271 122.107 140.151 121.36C139.031 120.613 137.458 120.24 135.431 120.24H127.231V141.76ZM166.105 145V140.52L165.905 139.68V132.04C165.905 130.413 165.425 129.16 164.465 128.28C163.531 127.373 162.118 126.92 160.225 126.92C158.971 126.92 157.745 127.133 156.545 127.56C155.345 127.96 154.331 128.507 153.505 129.2L151.905 126.32C152.998 125.44 154.305 124.773 155.825 124.32C157.371 123.84 158.985 123.6 160.665 123.6C163.571 123.6 165.811 124.307 167.385 125.72C168.958 127.133 169.745 129.293 169.745 132.2V145H166.105ZM159.145 145.24C157.571 145.24 156.185 144.973 154.985 144.44C153.811 143.907 152.905 143.173 152.265 142.24C151.625 141.28 151.305 140.2 151.305 139C151.305 137.853 151.571 136.813 152.105 135.88C152.665 134.947 153.558 134.2 154.785 133.64C156.038 133.08 157.718 132.8 159.825 132.8H166.545V135.56H159.985C158.065 135.56 156.771 135.88 156.105 136.52C155.438 137.16 155.105 137.933 155.105 138.84C155.105 139.88 155.518 140.72 156.345 141.36C157.171 141.973 158.318 142.28 159.785 142.28C161.225 142.28 162.478 141.96 163.545 141.32C164.638 140.68 165.425 139.747 165.905 138.52L166.665 141.16C166.158 142.413 165.265 143.413 163.985 144.16C162.705 144.88 161.091 145.24 159.145 145.24ZM188.091 145.24C186.278 145.24 184.638 144.84 183.171 144.04C181.731 143.213 180.584 142 179.731 140.4C178.904 138.8 178.491 136.8 178.491 134.4C178.491 132 178.918 130 179.771 128.4C180.651 126.8 181.811 125.6 183.251 124.8C184.718 124 186.331 123.6 188.091 123.6C190.171 123.6 192.011 124.053 193.611 124.96C195.211 125.867 196.478 127.133 197.411 128.76C198.344 130.36 198.811 132.24 198.811 134.4C198.811 136.56 198.344 138.453 197.411 140.08C196.478 141.707 195.211 142.973 193.611 143.88C192.011 144.787 190.171 145.24 188.091 145.24ZM176.851 145V115.32H180.691V129.44L180.291 134.36L180.531 139.28V145H176.851ZM187.771 141.88C189.131 141.88 190.344 141.573 191.411 140.96C192.504 140.347 193.358 139.48 193.971 138.36C194.611 137.213 194.931 135.893 194.931 134.4C194.931 132.88 194.611 131.573 193.971 130.48C193.358 129.36 192.504 128.493 191.411 127.88C190.344 127.267 189.131 126.96 187.771 126.96C186.438 126.96 185.224 127.267 184.131 127.88C183.064 128.493 182.211 129.36 181.571 130.48C180.958 131.573 180.651 132.88 180.651 134.4C180.651 135.893 180.958 137.213 181.571 138.36C182.211 139.48 183.064 140.347 184.131 140.96C185.224 141.573 186.438 141.88 187.771 141.88ZM213.557 145.24C211.29 145.24 209.29 144.773 207.557 143.84C205.85 142.907 204.517 141.627 203.557 140C202.623 138.373 202.157 136.507 202.157 134.4C202.157 132.293 202.61 130.427 203.517 128.8C204.45 127.173 205.717 125.907 207.317 125C208.943 124.067 210.77 123.6 212.797 123.6C214.85 123.6 216.663 124.053 218.237 124.96C219.81 125.867 221.037 127.147 221.917 128.8C222.823 130.427 223.277 132.333 223.277 134.52C223.277 134.68 223.263 134.867 223.237 135.08C223.237 135.293 223.223 135.493 223.197 135.68H205.157V132.92H221.197L219.637 133.88C219.663 132.52 219.383 131.307 218.797 130.24C218.21 129.173 217.397 128.347 216.357 127.76C215.343 127.147 214.157 126.84 212.797 126.84C211.463 126.84 210.277 127.147 209.237 127.76C208.197 128.347 207.383 129.187 206.797 130.28C206.21 131.347 205.917 132.573 205.917 133.96V134.6C205.917 136.013 206.237 137.28 206.877 138.4C207.543 139.493 208.463 140.347 209.637 140.96C210.81 141.573 212.157 141.88 213.677 141.88C214.93 141.88 216.063 141.667 217.077 141.24C218.117 140.813 219.023 140.173 219.797 139.32L221.917 141.8C220.957 142.92 219.757 143.773 218.317 144.36C216.903 144.947 215.317 145.24 213.557 145.24Z" fill="white"/>
</svg>
